<svg width="30" height="30" viewBox="0 0 30 30" fill="none" xmlns="http://www.w3.org/2000/svg">
<path d="M19.9712 5.80542C19.7205 5.80542 19.4754 5.90686 19.2981 6.08419C19.1205 6.26127 19.0188 6.50706 19.0188 6.7578C19.0188 7.00854 19.1205 7.25358 19.2981 7.43067C19.4754 7.6085 19.7205 7.71018 19.9712 7.71018C20.222 7.71018 20.4678 7.6085 20.6448 7.43067C20.8219 7.25358 20.9236 7.00854 20.9236 6.7578C20.9236 6.50706 20.8219 6.26127 20.6448 6.08419C20.4678 5.90686 20.222 5.80542 19.9712 5.80542Z" fill="#948A82"/>
<path fill-rule="evenodd" clip-rule="evenodd" d="M25.3088 6.01703L28.246 7.09939C29.7471 7.65263 29.9712 8.49419 29.9712 8.94673C29.9712 9.39927 29.7471 10.2411 28.246 10.7943L25.3379 11.8661V16.3971C25.3379 21.1 21.5368 24.9314 16.8457 24.9815V28.75C16.8457 29.2278 16.4585 29.615 15.9808 29.615C15.503 29.615 15.1158 29.2278 15.1158 28.75V24.9826H12.2135V28.75C12.2135 29.2278 11.8263 29.615 11.3487 29.615C10.871 29.615 10.4838 29.2278 10.4838 28.75V24.9826H1.31232C0.998544 24.9826 0.70955 24.8127 0.556831 24.5388C0.404112 24.2647 0.41177 23.9295 0.576653 23.6626L11.4949 6.01005V6.00982L13.2661 3.14613L13.2708 3.13847C13.5057 2.76747 13.7794 2.41832 14.0844 2.10071C15.3298 0.804802 17.0041 0.0911865 18.7986 0.0911865C22.1974 0.0911865 24.9984 2.69787 25.3088 6.01703ZM8.58336 18.4634C11.9378 18.4634 14.6667 15.7344 14.6667 12.3801C14.6667 10.5472 13.8621 8.85505 12.4795 7.70669L6.14189 17.9532C6.90706 18.2886 7.73733 18.4634 8.58336 18.4634ZM23.6082 16.3971C23.6082 20.1772 20.5328 23.2526 16.7527 23.2526H2.86428L5.22512 19.4356C6.26915 19.933 7.41477 20.1934 8.58336 20.1934C12.8915 20.1934 16.3966 16.6884 16.3966 12.3801C16.3966 9.94259 15.2888 7.69925 13.3963 6.22427L14.7347 4.06022C14.9072 3.78834 15.1079 3.53244 15.3318 3.29953C16.2479 2.34624 17.4791 1.82116 18.7986 1.82116C21.4505 1.82116 23.6082 3.97868 23.6082 6.63086V16.3971ZM25.3381 10.0223L27.6478 9.17109C27.8672 9.09022 28.0188 9.0107 28.1179 8.94673C28.0188 8.88298 27.8674 8.80347 27.6478 8.7226L25.3381 7.87135V10.0223Z" fill="#948A82"/>
</svg>
