<svg width="38" height="26" viewBox="0 0 38 26" fill="none" xmlns="http://www.w3.org/2000/svg">
<path d="M14.2147 10.8333C14.4999 10.8333 14.7795 10.7179 14.9809 10.5165C15.1826 10.3148 15.298 10.0355 15.298 9.74996C15.298 9.46474 15.1826 9.18601 14.9809 8.98457C14.7795 8.78314 14.4999 8.66663 14.2147 8.66663C13.9294 8.66663 13.6507 8.78314 13.4493 8.98457C13.247 9.18601 13.1313 9.46558 13.1313 9.74996C13.1313 10.0355 13.247 10.3148 13.4493 10.5165C13.6507 10.7179 13.9294 10.8333 14.2147 10.8333Z" fill="white"/>
<path d="M23.6035 10.8333C23.8888 10.8333 24.1675 10.7179 24.3689 10.5165C24.5712 10.3148 24.6869 10.0355 24.6869 9.74996C24.6869 9.46558 24.5712 9.18601 24.3689 8.98457C24.1675 8.78229 23.8888 8.66663 23.6035 8.66663C23.3183 8.66663 23.0387 8.78229 22.8373 8.98457C22.6359 9.18601 22.5202 9.46474 22.5202 9.74996C22.5202 10.0355 22.6359 10.3148 22.8373 10.5165C23.0387 10.7179 23.3183 10.8333 23.6035 10.8333Z" fill="white"/>
<path d="M25.0515 15.2683C24.4555 15.2683 23.9719 15.7427 23.9719 16.3273C23.9719 17.3072 23.1594 18.1042 22.1608 18.1042C21.3782 18.1042 20.7102 17.6147 20.4574 16.9316C20.5915 16.8053 20.7116 16.6547 20.8136 16.4815L21.3919 15.4989C21.7304 14.9236 21.7535 14.3034 21.4555 13.7967C21.1575 13.2904 20.598 13 19.9213 13H18.7644C18.0875 13 17.5283 13.2904 17.23 13.797C16.932 14.3034 16.9553 14.9239 17.2938 15.4989L17.8721 16.4818C17.9455 16.6064 18.0287 16.7187 18.1192 16.8196C17.9014 17.5606 17.2041 18.1045 16.3793 18.1045C15.3807 18.1045 14.5682 17.3072 14.5682 16.3276C14.5682 15.7427 14.0847 15.2686 13.4886 15.2686C12.8924 15.2686 12.4091 15.7427 12.4091 16.3276C12.4091 18.4751 14.1901 20.2222 16.3793 20.2222C17.5176 20.2222 18.5454 19.7501 19.2702 18.9947C19.9947 19.7501 21.0225 20.2222 22.1608 20.2222C24.35 20.2222 26.1313 18.4751 26.1313 16.3276C26.131 15.7424 25.6478 15.2683 25.0515 15.2683Z" fill="white"/>
<path fill-rule="evenodd" clip-rule="evenodd" d="M33.5481 17.0824L37.0038 18.5125C37.566 18.7449 37.8348 19.3936 37.6044 19.9605C37.4299 20.3901 37.019 20.6497 36.5861 20.6497C36.4468 20.6497 36.3056 20.6231 36.1689 20.5664L30.6765 18.2937C28.6634 22.8308 24.1463 26 18.9092 26C13.672 26 9.15495 22.8308 7.14182 18.2937L1.6494 20.5664C1.51273 20.6231 1.37147 20.6497 1.23251 20.6497C0.79928 20.65 0.388688 20.3901 0.213907 19.9605C-0.0167463 19.3933 0.252302 18.7449 0.814466 18.5125L4.27054 17.0827H1.23193C0.624499 17.0827 0.131961 16.5855 0.131961 15.9727C0.131961 15.3595 0.624499 14.8626 1.23193 14.8626H4.27026L0.814752 13.4328C0.252302 13.2001 -0.0164597 12.5517 0.214194 11.9845C0.444847 11.417 1.08752 11.1462 1.64969 11.3786L6.02666 13.1897C6.02641 13.1715 6.02612 13.1534 6.02583 13.1353C6.0251 13.0902 6.02437 13.0452 6.02437 13V1.11014C6.02437 0.700802 6.24757 0.324708 6.60544 0.131312C6.96303 -0.0617936 7.39711 -0.0406907 7.73493 0.186527L11.2472 2.5489C13.4563 0.899689 16.1459 6.97343e-05 18.9092 6.97343e-05C21.6724 6.97343e-05 24.3623 0.899689 26.5717 2.5489L30.0837 0.186527C30.4215 -0.0406907 30.8556 -0.0617936 31.2132 0.131312C31.571 0.324708 31.7942 0.700802 31.7942 1.11014V13C31.7942 13.0454 31.7935 13.0908 31.7928 13.136C31.7925 13.1539 31.7922 13.1718 31.7919 13.1897L36.1689 11.3786C36.7311 11.1462 37.3737 11.4173 37.6044 11.9845C37.8348 12.5517 37.566 13.2001 37.0038 13.4328L33.5486 14.8623H36.5864C37.1941 14.8623 37.6866 15.3595 37.6866 15.9724C37.6866 16.5855 37.1941 17.0824 36.5864 17.0824H33.5481ZM9.17873 17.451C10.8612 21.1804 14.5901 23.7799 18.9092 23.7799C23.2285 23.7799 26.9571 21.1804 28.6396 17.451L27.5625 17.0055C27.3178 16.9084 27.1075 16.7231 26.9815 16.469C26.7766 16.0553 26.8474 15.5564 27.1591 15.2173C27.2743 15.0924 27.413 14.9987 27.5637 14.9392L29.5358 14.1231C29.5739 13.754 29.5937 13.3793 29.5937 13V3.1843L27.127 4.84362C26.719 5.11796 26.18 5.08703 25.8058 4.7673C23.8818 3.12474 21.4323 2.22021 18.9092 2.22021C16.386 2.22021 13.9368 3.12474 12.0125 4.7673C11.6383 5.08674 11.0996 5.11796 10.6916 4.84362L8.2246 3.1843V13C8.2246 13.3793 8.24437 13.754 8.28248 14.1231L10.2701 14.9455C10.683 15.1164 10.9529 15.522 10.9529 15.9724C10.9529 16.4228 10.6833 16.8286 10.2701 16.9995L9.17873 17.451Z" fill="white"/>
</svg>
