<svg width="37" height="28" viewBox="0 0 37 28" fill="none" xmlns="http://www.w3.org/2000/svg">
<path fill-rule="evenodd" clip-rule="evenodd" d="M26.9989 1.53773L35.072 11.1878C35.224 11.3694 35.3071 11.5987 35.3071 11.8353C35.3071 14.4815 33.1482 16.6343 30.4948 16.6343C29.4572 16.6343 28.4962 16.304 27.7092 15.7447V19.4123C27.7092 22.1546 25.6259 24.4198 22.9545 24.7182C22.1341 26.6831 20.199 28 18.013 28C15.8269 28 13.8921 26.6831 13.0712 24.7185C10.4001 24.4198 8.31644 22.1546 8.31644 19.4123V15.745C7.52979 16.304 6.56871 16.6343 5.53111 16.6343C2.87745 16.6343 0.718857 14.4815 0.718857 11.8353C0.718857 11.5987 0.801981 11.3694 0.95398 11.1878L9.02603 1.53931C9.12789 1.39904 9.23951 1.2664 9.35985 1.14192C9.38993 1.10718 9.42212 1.07533 9.4559 1.04586C10.1267 0.398974 11.039 0 12.0436 0H23.9826C24.9854 0 25.8963 0.397921 26.5671 1.04296C26.6046 1.0756 26.6405 1.11086 26.6738 1.14981C26.7907 1.2714 26.8994 1.40088 26.9989 1.53773ZM2.76636 12.1766C2.93551 13.548 4.11086 14.6131 5.53111 14.6131C7.06693 14.6131 8.3167 13.3669 8.31644 11.8353V5.54221L2.76636 12.1766ZM18.013 25.9788C16.8806 25.9788 15.8568 25.4109 15.2514 24.5153C16.3737 24.169 17.3393 23.4642 18.013 22.5352C18.6867 23.4642 19.6522 24.169 20.7746 24.5153C20.1695 25.4109 19.1456 25.9788 18.013 25.9788ZM18.013 18.3659C18.047 18.3315 18.0924 18.2752 18.1415 18.1901L19.2271 16.315C19.2765 16.23 19.3026 16.1629 19.3155 16.1161C19.2685 16.1042 19.197 16.0932 19.0986 16.0932H16.9273C16.8289 16.0932 16.7574 16.1042 16.7104 16.1161C16.7236 16.1629 16.7497 16.23 16.7988 16.315L17.8847 18.1901C17.9338 18.2752 17.9789 18.3315 18.013 18.3659ZM25.6826 19.4123C25.6826 21.2425 24.1898 22.7315 22.3544 22.7315C20.7498 22.7315 19.4068 21.593 19.0946 20.0834C19.4042 19.8755 19.6784 19.5776 19.8966 19.2007L20.9825 17.3253C21.4319 16.5487 21.4754 15.7331 21.1015 15.0876C20.7278 14.4423 19.9979 14.072 19.0986 14.072H16.9273C16.028 14.072 15.2981 14.4423 14.9244 15.0876C14.5505 15.7331 14.5941 16.5487 15.0437 17.3256L16.1293 19.2007C16.3476 19.5776 16.6218 19.8755 16.9313 20.0834C16.6191 21.593 15.2762 22.7318 13.6715 22.7318C11.8362 22.7318 10.3431 21.2427 10.3431 19.4123V3.71682C10.3431 3.37101 10.4479 3.04915 10.6265 2.78071L10.8635 2.49753C11.1696 2.20304 11.5855 2.02119 12.0433 2.02119H23.9826C24.4415 2.02119 24.8582 2.20383 25.1646 2.50016L25.3963 2.77729C25.5768 3.04678 25.6823 3.37048 25.6826 3.71893V3.72051V19.4123ZM27.7095 11.8353C27.7095 13.3669 28.959 14.6131 30.4948 14.6131C31.9151 14.6131 33.0904 13.548 33.2596 12.1766L27.7095 5.54194V11.8353Z" fill="#948A82"/>
<path d="M13.8953 9.05884C13.6785 9.05884 13.4666 9.14655 13.3133 9.30032C13.1595 9.45345 13.0718 9.66533 13.0718 9.88237C13.0718 10.0992 13.1595 10.3115 13.3133 10.4648C13.4666 10.618 13.6785 10.7059 13.8953 10.7059C14.1122 10.7059 14.3247 10.618 14.4778 10.4648C14.6309 10.3115 14.7189 10.0992 14.7189 9.88237C14.7189 9.66533 14.6309 9.45345 14.4778 9.30032C14.3247 9.14655 14.1122 9.05884 13.8953 9.05884Z" fill="#948A82"/>
<path d="M22.1306 9.05884C21.9138 9.05884 21.7013 9.14655 21.5482 9.30032C21.395 9.45345 21.3071 9.66533 21.3071 9.88237C21.3071 10.0992 21.395 10.3115 21.5482 10.4648C21.7013 10.618 21.9138 10.7059 22.1306 10.7059C22.3474 10.7059 22.5593 10.618 22.7127 10.4648C22.8664 10.3115 22.9542 10.0992 22.9542 9.88237C22.9542 9.66533 22.8664 9.45345 22.7127 9.30032C22.5593 9.14655 22.3474 9.05884 22.1306 9.05884Z" fill="#948A82"/>
</svg>
