<svg width="28" height="28" viewBox="0 0 28 28" fill="none" xmlns="http://www.w3.org/2000/svg">
<path d="M10.7057 11.5294C10.4893 11.5294 10.2769 11.6171 10.1238 11.7703C9.97004 11.924 9.88235 12.1359 9.88235 12.3529C9.88235 12.5698 9.97004 12.7817 10.1238 12.9354C10.2769 13.0885 10.4893 13.1765 10.7057 13.1765C10.9224 13.1765 11.1349 13.0885 11.288 12.9354C11.4411 12.7817 11.5294 12.5698 11.5294 12.3529C11.5294 12.1359 11.4411 11.924 11.288 11.7703C11.1349 11.6171 10.9224 11.5294 10.7057 11.5294Z" fill="#948A82"/>
<path d="M18.1176 12.3529C18.1176 12.1359 18.0293 11.924 17.876 11.7703C17.7228 11.6171 17.5103 11.5294 17.2941 11.5294C17.0771 11.5294 16.8648 11.6171 16.7116 11.7703C16.5583 11.924 16.4706 12.1359 16.4706 12.3529C16.4706 12.5698 16.5583 12.7817 16.7116 12.9354C16.8648 13.0885 17.0771 13.1765 17.2941 13.1765C17.5109 13.1765 17.7228 13.0885 17.876 12.9354C18.0291 12.7823 18.1176 12.5698 18.1176 12.3529Z" fill="#948A82"/>
<path d="M14.4104 15.6471H13.5896C13.1091 15.6471 12.7121 15.8652 12.5006 16.2454C12.2891 16.6256 12.3054 17.0916 12.5457 17.5238L12.9563 18.2615C13.1965 18.6935 13.5768 18.9412 14 18.9412C14.423 18.9412 14.8035 18.6935 15.0437 18.2615L15.4544 17.5236C15.6946 17.0916 15.711 16.6256 15.4993 16.2454C15.2878 15.8652 14.8907 15.6471 14.4104 15.6471Z" fill="#948A82"/>
<path fill-rule="evenodd" clip-rule="evenodd" d="M27.961 13.7512C28.0983 14.183 27.8599 14.6444 27.4282 14.7818L27.0091 14.9151C27.0605 15.2105 27.0947 15.5111 27.1103 15.8155H27.1793C27.6324 15.8155 27.9996 16.1829 27.9996 16.6358C27.9996 17.0889 27.6324 17.4561 27.1793 17.4561H27.0135C26.9644 17.742 26.8988 18.0222 26.8179 18.2959L27.4282 18.4903C27.8599 18.6276 28.0985 19.0889 27.9612 19.5206C27.8501 19.8697 27.5273 20.0925 27.1795 20.0925C27.0973 20.0925 27.0133 20.0799 26.9307 20.0536L26.1764 19.8135C24.9062 22.0751 22.4843 23.6066 19.7111 23.6066H18.3349V24.983C18.3349 26.6465 16.9816 28 15.3182 28H12.6821C11.0186 28 9.6653 26.6465 9.6653 24.983V23.6066H8.28893C5.51569 23.6066 3.09386 22.0749 1.82366 19.8135L1.06936 20.0536C0.986479 20.0799 0.90274 20.0925 0.820282 20.0925C0.472719 20.0925 0.149936 19.8697 0.0388524 19.5206C-0.0985065 19.0889 0.139896 18.6276 0.571839 18.4903L1.18237 18.2959C1.10141 18.0222 1.03561 17.742 0.986479 17.4563H0.820495C0.367403 17.4563 0.000186811 17.0889 0.000186811 16.636C0.000186811 16.1829 0.367403 15.8157 0.820495 15.8157H0.889922C0.905303 15.5111 0.939483 15.2105 0.991179 14.9151L0.571839 14.7818C0.140109 14.6444 -0.0985065 14.183 0.0388524 13.7512C0.176425 13.3195 0.637848 13.0809 1.06936 13.2182L1.45089 13.3398C1.77688 12.5592 2.23339 11.8419 2.79906 11.2183C2.13747 10.793 1.56155 10.2422 1.10184 9.58705C0.381288 8.55951 0.000400433 7.35104 0.000400433 6.09215C0.000400433 2.7329 2.73327 0 6.09247 0C7.625 0 9.0898 0.571232 10.2169 1.60859C11.0983 2.41994 11.7133 3.45987 12.0006 4.60254C12.6496 4.4654 13.3187 4.39319 14.0001 4.39319C14.6814 4.39319 15.3506 4.4654 15.9996 4.60254C16.2867 3.45987 16.9017 2.41994 17.7831 1.60881C18.9102 0.571446 20.375 0 21.9078 0C25.267 0 27.9998 2.7329 27.9998 6.09215C27.9998 7.35104 27.6189 8.5593 26.8984 9.58683C26.4387 10.2422 25.8628 10.793 25.201 11.2183C25.7666 11.8419 26.2234 12.5592 26.5491 13.3398L26.9307 13.2185C27.3624 13.0811 27.8236 13.3195 27.961 13.7512ZM26.3592 6.09215C26.3592 3.6376 24.3623 1.64064 21.9078 1.64064C19.8326 1.64064 18.0367 3.10803 17.5729 5.07935C19.5724 5.8781 21.2733 7.33929 22.3681 9.279C22.9133 9.48814 23.4232 9.75731 23.8919 10.0771C25.3834 9.33113 26.3592 7.78106 26.3592 6.09215ZM1.64102 6.09215C1.64102 3.6376 3.63796 1.64064 6.09226 1.64064C8.16717 1.64064 9.9633 3.10803 10.4271 5.07935C8.42779 5.8781 6.72672 7.33929 5.63212 9.27921C5.08674 9.48814 4.57704 9.75752 4.10814 10.0771C2.61684 9.33113 1.64102 7.78106 1.64102 6.09215ZM3.8206 15.8155L2.57284 15.4186C2.55511 15.5497 2.54186 15.682 2.5331 15.8155H3.8206ZM2.6585 17.4561H3.82082L2.74608 17.7981C2.7134 17.6856 2.68413 17.5715 2.6585 17.4561ZM11.3059 23.6066V24.983C11.3059 25.742 11.9233 26.3594 12.6821 26.3594H13.1798V23.6066H11.3059ZM16.6943 24.983C16.6943 25.742 16.077 26.3594 15.3182 26.3594H14.8204V23.6066H16.6943V24.983ZM18.8801 21.966H19.7111C21.7497 21.966 23.5447 20.9032 24.5712 19.3027L18.6586 17.4209C18.5317 17.3824 18.4138 17.3132 18.3166 17.216C18.0489 16.9483 17.9991 16.5326 18.1959 16.2094C18.3042 16.0315 18.4717 15.9071 18.6605 15.8503L24.9779 13.8397C24.6062 13.008 24.0416 12.2736 23.329 11.7004C23.2997 11.6808 23.2717 11.659 23.245 11.6355C22.7409 11.2454 22.1669 10.9337 21.5369 10.7237C21.335 10.6562 21.1673 10.5133 21.0689 10.3245C20.0792 8.42514 18.4044 7.04214 16.4358 6.41259C16.4324 6.4116 16.429 6.41059 16.4256 6.40955C16.4214 6.40829 16.4173 6.40699 16.4131 6.40569L16.4002 6.40169C15.6362 6.16115 14.8288 6.03383 14.0001 6.03383C13.1685 6.03383 12.3584 6.162 11.5922 6.40383C11.5843 6.40639 11.5766 6.40874 11.5687 6.41109C9.59801 7.04 7.92172 8.42365 6.93115 10.3245C6.83267 10.5133 6.66498 10.6562 6.46311 10.7237C5.83613 10.9329 5.26447 11.2426 4.76203 11.6304C4.73255 11.6564 4.70158 11.6808 4.66889 11.7024C3.95732 12.2751 3.39357 13.0087 3.02208 13.8397L9.35234 15.8542C9.69264 15.9625 9.92378 16.2786 9.92378 16.6358C9.92378 16.993 9.69264 17.3092 9.35234 17.4175L3.42882 19.3027C4.45527 20.9032 6.25034 21.966 8.28893 21.966H9.12035C8.90758 21.553 8.78667 21.0854 8.78667 20.5898C8.78667 20.1367 9.15389 19.7695 9.60698 19.7695C10.0601 19.7695 10.4273 20.1367 10.4273 20.5898C10.4273 21.3486 11.0447 21.966 11.8034 21.966C12.5624 21.966 13.1798 21.3486 13.1798 20.5898C13.1798 20.1367 13.547 19.7695 14.0001 19.7695C14.4532 19.7695 14.8204 20.1367 14.8204 20.5898C14.8204 21.3486 15.4378 21.966 16.1966 21.966C16.9556 21.966 17.5729 21.3486 17.5729 20.5898C17.5729 20.1367 17.9404 19.7695 18.3933 19.7695C18.8463 19.7695 19.2136 20.1367 19.2136 20.5898C19.2136 21.0854 19.0926 21.553 18.8801 21.966ZM25.2541 17.7984L24.179 17.4561H25.3417C25.3159 17.5715 25.2868 17.6856 25.2541 17.7984ZM24.1796 15.8155H25.4671C25.4584 15.682 25.4449 15.5497 25.4272 15.4186L24.1796 15.8155Z" fill="#948A82"/>
</svg>
