<svg width="29" height="28" viewBox="0 0 29 28" fill="none" xmlns="http://www.w3.org/2000/svg">
<path d="M11.173 15.8667C10.9273 15.8667 10.6867 15.9664 10.513 16.1399C10.3395 16.3142 10.2394 16.5543 10.2394 16.8C10.2394 17.0458 10.3395 17.2866 10.513 17.4602C10.6867 17.6337 10.9273 17.7334 11.173 17.7334C11.4181 17.7334 11.6589 17.6337 11.8324 17.4602C12.0059 17.2859 12.106 17.0458 12.106 16.8C12.106 16.5548 12.0059 16.3139 11.8324 16.1399C11.6589 15.9664 11.4181 15.8667 11.173 15.8667Z" fill="#948A82"/>
<path d="M18.6394 15.8667C18.3937 15.8667 18.1528 15.9664 17.9792 16.1399C17.8055 16.3142 17.7061 16.5543 17.7061 16.8C17.7061 17.0458 17.8055 17.2866 17.9792 17.4602C18.1528 17.6337 18.3937 17.7334 18.6394 17.7334C18.8851 17.7334 19.1253 17.6337 19.2995 17.4602C19.4731 17.2859 19.5727 17.0458 19.5727 16.8C19.5727 16.5548 19.4731 16.3139 19.2995 16.1399C19.1253 15.9664 18.8851 15.8667 18.6394 15.8667Z" fill="#948A82"/>
<path d="M15.3712 19.6H14.4409C13.8964 19.6 13.4466 19.8471 13.2067 20.2781C12.967 20.7091 12.9855 21.2372 13.2578 21.7268L13.7232 22.5632C13.9954 23.0528 14.4266 23.3333 14.906 23.3333C15.3854 23.3333 15.8166 23.0528 16.0891 22.5632L16.5543 21.7266C16.8265 21.2372 16.8451 20.7091 16.6054 20.2781C16.3655 19.8471 15.9157 19.6 15.3712 19.6V19.6Z" fill="#948A82"/>
<path fill-rule="evenodd" clip-rule="evenodd" d="M26.1753 21.8495L28.4374 22.9242C28.8467 23.1186 29.0208 23.6078 28.8264 24.0172C28.686 24.3126 28.3917 24.4856 28.0849 24.4856C27.9668 24.4856 27.8471 24.46 27.7335 24.406L25.6996 23.4399C24.5808 26.1152 21.9364 28 18.86 28H10.9524C7.87577 28 5.23155 26.1152 4.1126 23.4397L2.0787 24.406C1.96505 24.46 1.84521 24.4856 1.72707 24.4856C1.42031 24.4856 1.12615 24.3126 0.98559 24.0172C0.791193 23.6078 0.965296 23.1186 1.3746 22.9242L3.63665 21.8495H1.72665C1.27355 21.8495 0.906336 21.4823 0.906336 21.0292C0.906336 20.5763 1.27355 20.2088 1.72665 20.2088H3.55291L3.55462 20.1697L1.37481 19.1341C0.965509 18.9397 0.791407 18.4505 0.985804 18.0412C1.1802 17.6321 1.6694 17.4578 2.0787 17.6524L3.84685 18.4923C4.30443 16.9465 5.25868 15.5774 6.57759 14.6118C5.78548 13.4783 5.06493 12.1457 4.46977 10.7089C3.53261 8.44636 3.0039 6.15991 2.98083 4.27103C2.95476 2.12558 3.60012 0.670787 4.79833 0.174319C5.07774 0.0587472 5.37853 0 5.69234 0C6.82582 0 8.09837 0.764141 9.37263 2.20975C10.5411 3.5353 11.6445 5.37548 12.4796 7.39104C12.7022 7.92874 12.9032 8.47199 13.0805 9.01396C13.6746 8.86271 14.2857 8.78645 14.9061 8.78645C15.5265 8.78645 16.1376 8.86271 16.7317 9.01375C16.9088 8.47221 17.1098 7.92895 17.3328 7.39104C18.1677 5.37527 19.2708 3.53509 20.4393 2.20954C21.7138 0.764141 22.9864 0 24.1199 0C24.4337 0 24.7344 0.0587473 25.0139 0.174533C26.2121 0.670787 26.8574 2.1258 26.8312 4.27103C26.8081 6.16013 26.2794 8.44657 25.3422 10.7089C24.7473 12.1457 24.0265 13.4781 23.2346 14.6116C24.5535 15.5772 25.508 16.9465 25.9656 18.4926L27.7335 17.6526C28.1428 17.4582 28.632 17.6323 28.8264 18.0414C29.021 18.4507 28.8467 18.9399 28.4376 19.1345L26.2578 20.17L26.2595 20.2088H28.0855C28.5384 20.2088 28.9059 20.5763 28.9059 21.0292C28.9059 21.4823 28.5384 21.8495 28.0855 21.8495H26.1753ZM20.1198 24.983C20.1198 25.4463 20.0145 25.8853 19.8271 26.278C21.8262 25.9389 23.4788 24.5685 24.2156 22.735L22.1964 21.7758C22.109 21.7358 22.0276 21.6801 21.9569 21.6094C21.6747 21.3272 21.6365 20.8826 21.8668 20.5564C21.9535 20.4334 22.0689 20.3406 22.1983 20.2821L24.4602 19.2076C24.0799 17.6716 23.0763 16.3337 21.6553 15.5447C21.4449 15.4279 21.2964 15.2247 21.2492 14.9889C21.2018 14.753 21.2605 14.5082 21.4094 14.3194C22.3205 13.1649 23.1562 11.6995 23.8265 10.081C25.6874 5.58825 25.4007 2.11063 24.386 1.69021C24.3057 1.65689 24.2185 1.64065 24.1199 1.64065C22.8552 1.64065 20.4802 4.07919 18.8485 8.01889C18.5387 8.76658 18.2745 9.52389 18.0634 10.2699C18.0004 10.4918 17.847 10.677 17.6407 10.78C17.4343 10.8832 17.1942 10.8947 16.9789 10.8116C16.3171 10.5566 15.6198 10.4271 14.9061 10.4271C14.1924 10.4271 13.4949 10.5566 12.8331 10.8116C12.6178 10.8947 12.3777 10.8832 12.1713 10.78C11.9649 10.677 11.8116 10.4918 11.7488 10.2699C11.5373 9.52325 11.2732 8.76594 10.9637 8.01889C9.33204 4.07919 6.95698 1.64065 5.69234 1.64065C5.59364 1.64065 5.50649 1.65689 5.42616 1.69021C4.41146 2.11063 4.12477 5.58825 5.98543 10.081C6.65578 11.6995 7.49168 13.1649 8.40278 14.3196C8.55189 14.5084 8.61042 14.753 8.563 14.9891C8.51579 15.2249 8.36732 15.4281 8.1569 15.5449C6.7361 16.3337 5.7325 17.6716 5.35204 19.2074L7.62733 20.2883C7.91337 20.4242 8.09559 20.7126 8.09559 21.0292C8.09559 21.346 7.91337 21.6344 7.62733 21.7702L5.59663 22.7348C6.33363 24.5685 7.98622 25.9391 9.9853 26.278C9.79795 25.8853 9.69285 25.4463 9.69285 24.983C9.69285 24.5301 10.0601 24.1626 10.5132 24.1626C10.966 24.1626 11.3335 24.5301 11.3335 24.983C11.3335 25.742 11.9508 26.3594 12.7096 26.3594C13.4684 26.3594 14.0858 25.742 14.0858 24.983C14.0858 24.5301 14.4532 24.1626 14.9061 24.1626C15.3592 24.1626 15.7264 24.5301 15.7264 24.983C15.7264 25.742 16.3438 26.3594 17.1028 26.3594C17.8616 26.3594 18.4791 25.742 18.4791 24.983C18.4791 24.5301 18.8464 24.1626 19.2995 24.1626C19.7523 24.1626 20.1198 24.5301 20.1198 24.983Z" fill="#948A82"/>
</svg>
